0
SECTION
2
HEADER
9
$ACADVER
1
AC1021
9
$DWGCODEPAGE
3
ANSI_1253
9
$HANDSEED
5
FFFF
9
$MEASUREMENT
70
1
9
$INSUNITS
70
6
9
$LUNITS
70
2
9
$LUPREC
70
3
9
$AUNITS
70
0
9
$AUPREC
70
4
9
$ANGBASE
50
90.0
9
$ANGDIR
70
1
9
$DIMSTYLE
2
STANDARD
9
$DIMSCALE
40
1.0
9
$DIMASZ
40
0.20
9
$DIMEXO
40
0.0625
9
$DIMDLI
40
0.38
9
$DIMEXE
40
0.18
9
$DIMDLE
40
0.0
9
$DIMTXT
40
0.20
9
$DIMCEN
40
0.0
9
$DIMLFAC
40
1.0
9
$DIMGAP
40
0.0
9
$DIMTAD
70
0
9
$DIMTIH
70
0
9
$DIMTOH
70
0
9
$DIMSE1
70
1
9
$DIMSE2
70
1
9
$DIMTMOVE
70
0
9
$DIMATFIT
70
3
9
$DIMDEC
70
2
9
$DIMLUNIT
70
2
9
$DIMAUNIT
70
0
9
$DIMADEC
70
4
9
$DIMDSEP
70
46
9
$DIMBLK
1
_ARCHTICK
9
$DIMBLK1
1
_ARCHTICK
9
$DIMBLK2
1
_ARCHTICK
9
$DIMLDRBLK
1
_ARCHTICK
0
ENDSEC
0
SECTION
2
CLASSES
0
CLASS
1
WIPEOUT
2
AcDbWipeout
3
WipeOut
90
127
91
0
280
0
281
1
0
CLASS
1
ACDBPLACEHOLDER
2
AcDbPlaceHolder
3
ObjectDBX Classes
90
0
91
0
280
0
281
0
0
CLASS
1
WIPEOUTVARIABLES
2
AcDbWipeoutVariables
3
WipeOut
90
0
91
0
280
0
281
0
0
ENDSEC
0
SECTION
2
TABLES
0
TABLE
2
VPORT
5
1
100
AcDbSymbolTable
70
0
0
ENDTAB
0
TABLE
2
LTYPE
5
2
100
AcDbSymbolTable
70
3
0
LTYPE
5
17
100
AcDbSymbolTableRecord
100
AcDbLinetypeTableRecord
2
ByBlock
70
0
3

72
65
73
0
40
0.0
0
LTYPE
5
18
100
AcDbSymbolTableRecord
100
AcDbLinetypeTableRecord
2
ByLayer
70
0
3

72
65
73
0
40
0.0
0
LTYPE
5
19
100
AcDbSymbolTableRecord
100
AcDbLinetypeTableRecord
2
CONTINUOUS
70
0
3
Solid line
72
65
73
0
40
0.0
0
ENDTAB
0
TABLE
2
LAYER
5
4
100
AcDbSymbolTable
70
1
0
LAYER
5
5
100
AcDbSymbolTableRecord
100
AcDbLayerTableRecord
2
0
70
0
62
7
6
CONTINUOUS
390
E
0
ENDTAB
0
TABLE
2
STYLE
5
6
100
AcDbSymbolTable
70
1
0
STYLE
5
7
100
AcDbSymbolTableRecord
100
AcDbTextStyleTableRecord
2
STANDARD
70
0
40
0.0
41
1.0
50
0.0
71
0
42
0.2
3
arial.ttf
4

0
ENDTAB
0
TABLE
2
VIEW
5
8
100
AcDbSymbolTable
70
0
0
ENDTAB
0
TABLE
2
UCS
5
9
100
AcDbSymbolTable
70
0
0
ENDTAB
0
TABLE
2
APPID
5
A
100
AcDbSymbolTable
70
1
0
APPID
5
B
100
AcDbSymbolTableRecord
100
AcDbRegAppTableRecord
2
ACAD
70
0
0
ENDTAB
0
TABLE
2
DIMSTYLE
5
20
100
AcDbSymbolTable
70
1
100
AcDbDimStyleTable
0
DIMSTYLE
105
21
100
AcDbSymbolTableRecord
100
AcDbDimStyleTableRecord
2
STANDARD
70
0
40
1.0
41
0.20
42
0.0625
43
0.38
44
0.18
46
0.0
140
0.20
141
0.0
143
1.0
147
0.0
71
0
72
0
73
0
74
0
75
1
76
1
77
0
271
2
275
0
277
2
278
46
289
3
179
4
5
_ARCHTICK
6
_ARCHTICK
7
_ARCHTICK
342
2A
343
2A
344
2A
0
ENDTAB
0
TABLE
2
BLOCK_RECORD
5
22
100
AcDbSymbolTable
70
23
0
BLOCK_RECORD
5
23
100
AcDbSymbolTableRecord
100
AcDbBlockTableRecord
2
*MODEL_SPACE
340
11
0
BLOCK_RECORD
5
24
100
AcDbSymbolTableRecord
100
AcDbBlockTableRecord
2
*PAPER_SPACE
340
12
0
BLOCK_RECORD
5
2A
100
AcDbSymbolTableRecord
100
AcDbBlockTableRecord
2
_ARCHTICK
0
BLOCK_RECORD
5
2E
100
AcDbSymbolTableRecord
100
AcDbBlockTableRecord
2
NORTH_ARROW
0
BLOCK_RECORD
5
54
100
AcDbSymbolTableRecord
100
AcDbBlockTableRecord
2
*D1
0
BLOCK_RECORD
5
5d
100
AcDbSymbolTableRecord
100
AcDbBlockTableRecord
2
*D2
0
BLOCK_RECORD
5
66
100
AcDbSymbolTableRecord
100
AcDbBlockTableRecord
2
*D3
0
BLOCK_RECORD
5
6f
100
AcDbSymbolTableRecord
100
AcDbBlockTableRecord
2
*D4
0
BLOCK_RECORD
5
78
100
AcDbSymbolTableRecord
100
AcDbBlockTableRecord
2
*D5
0
BLOCK_RECORD
5
81
100
AcDbSymbolTableRecord
100
AcDbBlockTableRecord
2
*D6
0
BLOCK_RECORD
5
8a
100
AcDbSymbolTableRecord
100
AcDbBlockTableRecord
2
*D7
0
BLOCK_RECORD
5
93
100
AcDbSymbolTableRecord
100
AcDbBlockTableRecord
2
*D8
0
BLOCK_RECORD
5
9c
100
AcDbSymbolTableRecord
100
AcDbBlockTableRecord
2
*D9
0
BLOCK_RECORD
5
a5
100
AcDbSymbolTableRecord
100
AcDbBlockTableRecord
2
*D10
0
BLOCK_RECORD
5
ae
100
AcDbSymbolTableRecord
100
AcDbBlockTableRecord
2
*D11
0
BLOCK_RECORD
5
b7
100
AcDbSymbolTableRecord
100
AcDbBlockTableRecord
2
*D12
0
BLOCK_RECORD
5
c0
100
AcDbSymbolTableRecord
100
AcDbBlockTableRecord
2
*D13
0
BLOCK_RECORD
5
c9
100
AcDbSymbolTableRecord
100
AcDbBlockTableRecord
2
*D14
0
BLOCK_RECORD
5
d2
100
AcDbSymbolTableRecord
100
AcDbBlockTableRecord
2
*D15
0
BLOCK_RECORD
5
db
100
AcDbSymbolTableRecord
100
AcDbBlockTableRecord
2
*D16
0
BLOCK_RECORD
5
e4
100
AcDbSymbolTableRecord
100
AcDbBlockTableRecord
2
*D17
0
BLOCK_RECORD
5
ed
100
AcDbSymbolTableRecord
100
AcDbBlockTableRecord
2
*D18
0
BLOCK_RECORD
5
50
100
AcDbSymbolTableRecord
100
AcDbBlockTableRecord
2
TITLE_BOARD_1
0
ENDTAB
0
ENDSEC
0
SECTION
2
BLOCKS
0
BLOCK
5
25
330
23
100
AcDbEntity
8
0
100
AcDbBlockBegin
2
*MODEL_SPACE
70
0
10
0.0
20
0.0
30
0.0
3
*MODEL_SPACE
1

0
ENDBLK
5
26
330
23
100
AcDbEntity
8
0
100
AcDbBlockEnd
0
BLOCK
5
27
330
24
100
AcDbEntity
8
0
100
AcDbBlockBegin
2
*PAPER_SPACE
70
0
10
0.0
20
0.0
30
0.0
3
*PAPER_SPACE
1

0
ENDBLK
5
28
330
24
100
AcDbEntity
8
0
100
AcDbBlockEnd
0
BLOCK
5
2B
330
2A
100
AcDbEntity
8
0
100
AcDbBlockBegin
2
_ARCHTICK
70
1
10
0.0
20
0.0
30
0.0
3
_ARCHTICK
1

0
LINE
5
2C
330
2A
100
AcDbEntity
8
0
62
0
100
AcDbLine
10
-0.5
20
-0.5
30
0.0
11
0.5
21
0.5
31
0.0
0
ENDBLK
5
2D
330
2A
100
AcDbEntity
8
0
100
AcDbBlockEnd
0
BLOCK
5
f6
330
2E
100
AcDbEntity
8
0
100
AcDbBlockBegin
2
NORTH_ARROW
70
0
10
0.0000
20
0.0000
30
0.0000
3
NORTH_ARROW
1

0
CIRCLE
5
f8
330
2E
100
AcDbEntity
8
0
62
8
100
AcDbCircle
10
0.0000
20
0.0000
30
0.0000
40
1.0000
0
LINE
5
f9
330
2E
100
AcDbEntity
8
0
62
8
100
AcDbLine
10
0.0000
20
-0.2000
30
0.0000
11
0.0000
21
1.7000
31
0.0000
0
LINE
5
fa
330
2E
100
AcDbEntity
8
0
62
8
100
AcDbLine
10
0.0000
20
1.7000
30
0.0000
11
-0.4500
21
1.2500
31
0.0000
0
LINE
5
fb
330
2E
100
AcDbEntity
8
0
62
8
100
AcDbLine
10
0.0000
20
1.7000
30
0.0000
11
0.4500
21
1.2500
31
0.0000
0
TEXT
5
fc
330
2E
100
AcDbEntity
8
0
62
8
100
AcDbText
10
0.0000
20
0.1500
30
0.0000
40
0.8000
1
B
7
STANDARD
50
0.0
100
AcDbText
0
ENDBLK
5
f7
330
2E
100
AcDbEntity
8
0
100
AcDbBlockEnd
0
BLOCK
5
51
330
50
100
AcDbEntity
8
0
100
AcDbBlockBegin
2
TITLE_BOARD_1
70
0
10
0.0000
20
0.0000
30
0.0000
3
TITLE_BOARD_1
1

0
LWPOLYLINE
5
fd
330
50
100
AcDbEntity
8
0
62
7
100
AcDbPolyline
90
4
70
1
10
-21.0000
20
-29.7000
10
21.0000
20
-29.7000
10
21.0000
20
29.7000
10
-21.0000
20
29.7000
0
LWPOLYLINE
5
fe
330
50
100
AcDbEntity
8
0
62
7
100
AcDbPolyline
90
4
70
1
10
-20.7813
20
25.0274
10
20.7812
20
25.0274
10
20.7812
20
29.4775
10
-20.7813
20
29.4775
0
LWPOLYLINE
5
ff
330
50
100
AcDbEntity
8
0
62
7
100
AcDbPolyline
90
4
70
1
10
-20.7813
20
16.6167
10
20.7812
20
16.6167
10
20.7812
20
23.9371
10
-20.7813
20
23.9371
0
LWPOLYLINE
5
100
330
50
100
AcDbEntity
8
0
62
7
100
AcDbPolyline
90
4
70
1
10
-20.7813
20
11.0763
10
20.7812
20
11.0763
10
20.7812
20
15.5264
10
-20.7813
20
15.5264
0
LWPOLYLINE
5
101
330
50
100
AcDbEntity
8
0
62
7
100
AcDbPolyline
90
4
70
1
10
-20.7813
20
2.6656
10
20.7812
20
2.6656
10
20.7812
20
9.9860
10
-20.7813
20
9.9860
0
LWPOLYLINE
5
102
330
50
100
AcDbEntity
8
0
62
7
100
AcDbPolyline
90
4
70
1
10
-20.7813
20
1.5753
10
12.0312
20
1.5753
10
12.0312
20
-7.7699
10
-20.7813
20
-7.7699
0
LWPOLYLINE
5
103
330
50
100
AcDbEntity
8
0
62
7
100
AcDbPolyline
90
4
70
1
10
12.0312
20
-7.7699
10
20.7812
20
-7.7699
10
20.7812
20
1.5753
10
12.0312
20
1.5753
0
LWPOLYLINE
5
104
330
50
100
AcDbEntity
8
0
62
7
100
AcDbPolyline
90
4
70
1
10
-20.7813
20
-10.6847
10
20.7812
20
-10.6847
10
20.7812
20
-8.8602
10
-20.7813
20
-8.8602
0
LWPOLYLINE
5
105
330
50
100
AcDbEntity
8
0
62
7
100
AcDbPolyline
90
4
70
1
10
-20.7813
20
-13.5995
10
20.7812
20
-13.5995
10
20.7812
20
-11.7750
10
-20.7813
20
-11.7750
0
LWPOLYLINE
5
106
330
50
100
AcDbEntity
8
0
62
7
100
AcDbPolyline
90
4
70
1
10
-20.7813
20
-29.4775
10
-0.0000
20
-29.4775
10
-0.0000
20
-14.6898
10
-20.7813
20
-14.6898
0
LWPOLYLINE
5
107
330
50
100
AcDbEntity
8
0
62
7
100
AcDbPolyline
90
4
70
1
10
-0.0000
20
-29.4775
10
20.7812
20
-29.4775
10
20.7812
20
-14.6898
10
-0.0000
20
-14.6898
0
TEXT
5
108
330
50
100
AcDbEntity
8
0
62
7
100
AcDbText
10
-10.4106
20
-14.7158
40
0.8900
1
\U+0398\U+0395\U+03A9\U+03A1\U+0397\U+03A3\U+0397
7
STANDARD
50
0.0
72
1
11
-10.4106
21
-14.7158
100
AcDbText
0
TEXT
5
109
330
50
100
AcDbEntity
8
0
62
7
100
AcDbText
10
10.4701
20
-14.7403
40
0.8900
1
\U+039F \U+03A3\U+03A5\U+039D\U+03A4\U+0391\U+039E\U+0391\U+03A3
7
STANDARD
50
0.0
72
1
11
10.4701
21
-14.7403
100
AcDbText
0
TEXT
5
10a
330
50
100
AcDbEntity
8
0
62
7
100
AcDbText
10
16.4480
20
-3.0444
40
0.8900
1
ARSXED
7
STANDARD
50
0.0
72
1
11
16.4480
21
-3.0444
100
AcDbText
0
TEXT
5
10b
330
50
100
AcDbEntity
8
0
62
7
100
AcDbText
10
-20.0239
20
-9.7672
40
0.8900
1
\U+039A\U+039B\U+0399\U+039C\U+0391\U+039A\U+0391
7
STANDARD
50
0.0
100
AcDbText
0
TEXT
5
10c
330
50
100
AcDbEntity
8
0
62
7
100
AcDbText
10
9.7288
20
-9.7710
40
0.8900
1
KLIMAKA
7
STANDARD
50
0.0
100
AcDbText
0
TEXT
5
10d
330
50
100
AcDbEntity
8
0
62
7
100
AcDbText
10
-20.0745
20
0.6234
40
0.8900
1
\U+0398\U+0395\U+039C\U+0391 \U+03A3\U+03A7\U+0395\U+0394\U+0399\U+039F\U+03A5
7
STANDARD
50
0.0
100
AcDbText
0
MTEXT
5
10e
330
50
100
AcDbEntity
8
0
62
7
100
AcDbMText
10
-4.3063
20
-3.8653
40
0.8900
1
THEMA_SXEDIOU
7
STANDARD
41
6.6529
71
5
72
5
0
TEXT
5
10f
330
50
100
AcDbEntity
8
0
62
7
100
AcDbText
10
-20.0413
20
-12.7651
40
0.8900
1
\U+03A7\U+03A1\U+039F\U+039D\U+039F\U+03A3 \U+039C\U+0395\U+039B\U+0395\U+03A4\U+0397\U+03A3
7
STANDARD
50
0.0
100
AcDbText
0
TEXT
5
110
330
50
100
AcDbEntity
8
0
62
7
100
AcDbText
10
9.5389
20
-12.7603
40
0.8900
1
XRONOSMELETHS
7
STANDARD
50
0.0
100
AcDbText
0
MTEXT
5
111
330
50
100
AcDbEntity
8
0
62
7
100
AcDbMText
10
-0.0000
20
27.2524
40
0.8900
1
ERGODOTIS
7
STANDARD
41
4.5169
71
5
72
5
0
MTEXT
5
112
330
50
100
AcDbEntity
8
0
62
7
100
AcDbMText
10
-0.0000
20
20.2769
40
0.8900
1
ERGO
7
STANDARD
41
2.1806
71
5
72
5
0
MTEXT
5
113
330
50
100
AcDbEntity
8
0
62
7
100
AcDbMText
10
-0.0000
20
13.3014
40
0.8900
1
PERIOXI
7
STANDARD
41
3.5823
71
5
72
5
0
MTEXT
5
114
330
50
100
AcDbEntity
8
0
62
7
100
AcDbMText
10
-0.0000
20
6.3258
40
0.8900
1
MELETITIS
7
STANDARD
41
4.7839
71
5
72
5
0
ENDBLK
5
52
330
50
100
AcDbEntity
8
0
100
AcDbBlockEnd
0
BLOCK
5
55
330
54
100
AcDbEntity
8
0
100
AcDbBlockBegin
2
*D1
70
1
10
0.0000
20
0.0000
30
0.0000
3
*D1
1

0
CIRCLE
5
5a
330
54
100
AcDbEntity
8
0
100
AcDbCircle
10
0.0000
20
0.0000
30
0.0000
40
0.3000
0
CIRCLE
5
5b
330
54
100
AcDbEntity
8
0
100
AcDbCircle
10
31.6900
20
0.0000
30
0.0000
40
0.3000
0
MTEXT
5
5c
330
54
100
AcDbEntity
8
0
100
AcDbMText
10
15.8450
20
0.5000
30
0.0000
40
0.2500
41
1.0000
1
31.69
7
STANDARD
50
0.0
71
5
72
5
0
ENDBLK
5
56
330
54
100
AcDbEntity
8
0
100
AcDbBlockEnd
0
BLOCK
5
5e
330
5d
100
AcDbEntity
8
0
100
AcDbBlockBegin
2
*D2
70
1
10
0.0000
20
0.0000
30
0.0000
3
*D2
1

0
CIRCLE
5
63
330
5d
100
AcDbEntity
8
0
100
AcDbCircle
10
0.0000
20
0.0000
30
0.0000
40
0.3000
0
CIRCLE
5
64
330
5d
100
AcDbEntity
8
0
100
AcDbCircle
10
26.6900
20
0.0000
30
0.0000
40
0.3000
0
MTEXT
5
65
330
5d
100
AcDbEntity
8
0
100
AcDbMText
10
13.3450
20
0.5000
30
0.0000
40
0.2500
41
1.0000
1
26.69
7
STANDARD
50
0.0
71
5
72
5
0
ENDBLK
5
5f
330
5d
100
AcDbEntity
8
0
100
AcDbBlockEnd
0
BLOCK
5
67
330
66
100
AcDbEntity
8
0
100
AcDbBlockBegin
2
*D3
70
1
10
0.0000
20
0.0000
30
0.0000
3
*D3
1

0
CIRCLE
5
6c
330
66
100
AcDbEntity
8
0
100
AcDbCircle
10
0.0000
20
0.0000
30
0.0000
40
0.3000
0
CIRCLE
5
6d
330
66
100
AcDbEntity
8
0
100
AcDbCircle
10
31.6906
20
0.0000
30
0.0000
40
0.3000
0
MTEXT
5
6e
330
66
100
AcDbEntity
8
0
100
AcDbMText
10
15.8453
20
0.5000
30
0.0000
40
0.2500
41
1.0000
1
31.69
7
STANDARD
50
0.0
71
5
72
5
0
ENDBLK
5
68
330
66
100
AcDbEntity
8
0
100
AcDbBlockEnd
0
BLOCK
5
70
330
6f
100
AcDbEntity
8
0
100
AcDbBlockBegin
2
*D4
70
1
10
0.0000
20
0.0000
30
0.0000
3
*D4
1

0
CIRCLE
5
75
330
6f
100
AcDbEntity
8
0
100
AcDbCircle
10
0.0000
20
0.0000
30
0.0000
40
0.3000
0
CIRCLE
5
76
330
6f
100
AcDbEntity
8
0
100
AcDbCircle
10
34.7800
20
0.0000
30
0.0000
40
0.3000
0
MTEXT
5
77
330
6f
100
AcDbEntity
8
0
100
AcDbMText
10
17.3900
20
0.5000
30
0.0000
40
0.2500
41
1.0000
1
34.78
7
STANDARD
50
0.0
71
5
72
5
0
ENDBLK
5
71
330
6f
100
AcDbEntity
8
0
100
AcDbBlockEnd
0
BLOCK
5
79
330
78
100
AcDbEntity
8
0
100
AcDbBlockBegin
2
*D5
70
1
10
0.0000
20
0.0000
30
0.0000
3
*D5
1

0
CIRCLE
5
7e
330
78
100
AcDbEntity
8
0
100
AcDbCircle
10
0.0000
20
0.0000
30
0.0000
40
0.3000
0
CIRCLE
5
7f
330
78
100
AcDbEntity
8
0
100
AcDbCircle
10
34.2191
20
0.0000
30
0.0000
40
0.3000
0
MTEXT
5
80
330
78
100
AcDbEntity
8
0
100
AcDbMText
10
17.1096
20
0.5000
30
0.0000
40
0.2500
41
1.0000
1
34.22
7
STANDARD
50
0.0
71
5
72
5
0
ENDBLK
5
7a
330
78
100
AcDbEntity
8
0
100
AcDbBlockEnd
0
BLOCK
5
82
330
81
100
AcDbEntity
8
0
100
AcDbBlockBegin
2
*D6
70
1
10
0.0000
20
0.0000
30
0.0000
3
*D6
1

0
CIRCLE
5
87
330
81
100
AcDbEntity
8
0
100
AcDbCircle
10
0.0000
20
0.0000
30
0.0000
40
0.3000
0
CIRCLE
5
88
330
81
100
AcDbEntity
8
0
100
AcDbCircle
10
40.7000
20
0.0000
30
0.0000
40
0.3000
0
MTEXT
5
89
330
81
100
AcDbEntity
8
0
100
AcDbMText
10
20.3500
20
0.5000
30
0.0000
40
0.2500
41
1.0000
1
40.70
7
STANDARD
50
0.0
71
5
72
5
0
ENDBLK
5
83
330
81
100
AcDbEntity
8
0
100
AcDbBlockEnd
0
BLOCK
5
8b
330
8a
100
AcDbEntity
8
0
100
AcDbBlockBegin
2
*D7
70
1
10
0.0000
20
0.0000
30
0.0000
3
*D7
1

0
CIRCLE
5
90
330
8a
100
AcDbEntity
8
0
100
AcDbCircle
10
0.0000
20
0.0000
30
0.0000
40
0.3000
0
CIRCLE
5
91
330
8a
100
AcDbEntity
8
0
100
AcDbCircle
10
39.7625
20
0.0000
30
0.0000
40
0.3000
0
MTEXT
5
92
330
8a
100
AcDbEntity
8
0
100
AcDbMText
10
19.8812
20
0.5000
30
0.0000
40
0.2500
41
1.0000
1
39.76
7
STANDARD
50
0.0
71
5
72
5
0
ENDBLK
5
8c
330
8a
100
AcDbEntity
8
0
100
AcDbBlockEnd
0
BLOCK
5
94
330
93
100
AcDbEntity
8
0
100
AcDbBlockBegin
2
*D8
70
1
10
0.0000
20
0.0000
30
0.0000
3
*D8
1

0
CIRCLE
5
99
330
93
100
AcDbEntity
8
0
100
AcDbCircle
10
0.0000
20
0.0000
30
0.0000
40
0.3000
0
CIRCLE
5
9a
330
93
100
AcDbEntity
8
0
100
AcDbCircle
10
45.0900
20
0.0000
30
0.0000
40
0.3000
0
MTEXT
5
9b
330
93
100
AcDbEntity
8
0
100
AcDbMText
10
22.5450
20
0.5000
30
0.0000
40
0.2500
41
1.0000
1
45.09
7
STANDARD
50
0.0
71
5
72
5
0
ENDBLK
5
95
330
93
100
AcDbEntity
8
0
100
AcDbBlockEnd
0
BLOCK
5
9d
330
9c
100
AcDbEntity
8
0
100
AcDbBlockBegin
2
*D9
70
1
10
0.0000
20
0.0000
30
0.0000
3
*D9
1

0
CIRCLE
5
a2
330
9c
100
AcDbEntity
8
0
100
AcDbCircle
10
0.0000
20
0.0000
30
0.0000
40
0.3000
0
CIRCLE
5
a3
330
9c
100
AcDbEntity
8
0
100
AcDbCircle
10
46.2465
20
0.0000
30
0.0000
40
0.3000
0
MTEXT
5
a4
330
9c
100
AcDbEntity
8
0
100
AcDbMText
10
23.1232
20
0.5000
30
0.0000
40
0.2500
41
1.0000
1
46.25
7
STANDARD
50
0.0
71
5
72
5
0
ENDBLK
5
9e
330
9c
100
AcDbEntity
8
0
100
AcDbBlockEnd
0
BLOCK
5
a6
330
a5
100
AcDbEntity
8
0
100
AcDbBlockBegin
2
*D10
70
1
10
0.0000
20
0.0000
30
0.0000
3
*D10
1

0
CIRCLE
5
ab
330
a5
100
AcDbEntity
8
0
100
AcDbCircle
10
0.0000
20
0.0000
30
0.0000
40
0.3000
0
CIRCLE
5
ac
330
a5
100
AcDbEntity
8
0
100
AcDbCircle
10
48.8700
20
0.0000
30
0.0000
40
0.3000
0
MTEXT
5
ad
330
a5
100
AcDbEntity
8
0
100
AcDbMText
10
24.4350
20
0.5000
30
0.0000
40
0.2500
41
1.0000
1
48.87
7
STANDARD
50
0.0
71
5
72
5
0
ENDBLK
5
a7
330
a5
100
AcDbEntity
8
0
100
AcDbBlockEnd
0
BLOCK
5
af
330
ae
100
AcDbEntity
8
0
100
AcDbBlockBegin
2
*D11
70
1
10
0.0000
20
0.0000
30
0.0000
3
*D11
1

0
CIRCLE
5
b4
330
ae
100
AcDbEntity
8
0
100
AcDbCircle
10
0.0000
20
0.0000
30
0.0000
40
0.3000
0
CIRCLE
5
b5
330
ae
100
AcDbEntity
8
0
100
AcDbCircle
10
36.7200
20
0.0000
30
0.0000
40
0.3000
0
MTEXT
5
b6
330
ae
100
AcDbEntity
8
0
100
AcDbMText
10
18.3600
20
0.5000
30
0.0000
40
0.2500
41
1.0000
1
36.72
7
STANDARD
50
0.0
71
5
72
5
0
ENDBLK
5
b0
330
ae
100
AcDbEntity
8
0
100
AcDbBlockEnd
0
BLOCK
5
b8
330
b7
100
AcDbEntity
8
0
100
AcDbBlockBegin
2
*D12
70
1
10
0.0000
20
0.0000
30
0.0000
3
*D12
1

0
CIRCLE
5
bd
330
b7
100
AcDbEntity
8
0
100
AcDbCircle
10
0.0000
20
0.0000
30
0.0000
40
0.3000
0
CIRCLE
5
be
330
b7
100
AcDbEntity
8
0
100
AcDbCircle
10
31.8500
20
0.0000
30
0.0000
40
0.3000
0
MTEXT
5
bf
330
b7
100
AcDbEntity
8
0
100
AcDbMText
10
15.9250
20
0.5000
30
0.0000
40
0.2500
41
1.0000
1
31.85
7
STANDARD
50
0.0
71
5
72
5
0
ENDBLK
5
b9
330
b7
100
AcDbEntity
8
0
100
AcDbBlockEnd
0
BLOCK
5
c1
330
c0
100
AcDbEntity
8
0
100
AcDbBlockBegin
2
*D13
70
1
10
0.0000
20
0.0000
30
0.0000
3
*D13
1

0
CIRCLE
5
c6
330
c0
100
AcDbEntity
8
0
100
AcDbCircle
10
0.0000
20
0.0000
30
0.0000
40
0.3000
0
CIRCLE
5
c7
330
c0
100
AcDbEntity
8
0
100
AcDbCircle
10
26.8300
20
0.0000
30
0.0000
40
0.3000
0
MTEXT
5
c8
330
c0
100
AcDbEntity
8
0
100
AcDbMText
10
13.4150
20
0.5000
30
0.0000
40
0.2500
41
1.0000
1
26.83
7
STANDARD
50
0.0
71
5
72
5
0
ENDBLK
5
c2
330
c0
100
AcDbEntity
8
0
100
AcDbBlockEnd
0
BLOCK
5
ca
330
c9
100
AcDbEntity
8
0
100
AcDbBlockBegin
2
*D14
70
1
10
0.0000
20
0.0000
30
0.0000
3
*D14
1

0
CIRCLE
5
cf
330
c9
100
AcDbEntity
8
0
100
AcDbCircle
10
0.0000
20
0.0000
30
0.0000
40
0.3000
0
CIRCLE
5
d0
330
c9
100
AcDbEntity
8
0
100
AcDbCircle
10
38.6162
20
0.0000
30
0.0000
40
0.3000
0
MTEXT
5
d1
330
c9
100
AcDbEntity
8
0
100
AcDbMText
10
19.3081
20
0.5000
30
0.0000
40
0.2500
41
1.0000
1
38.62
7
STANDARD
50
0.0
71
5
72
5
0
ENDBLK
5
cb
330
c9
100
AcDbEntity
8
0
100
AcDbBlockEnd
0
BLOCK
5
d3
330
d2
100
AcDbEntity
8
0
100
AcDbBlockBegin
2
*D15
70
1
10
0.0000
20
0.0000
30
0.0000
3
*D15
1

0
CIRCLE
5
d8
330
d2
100
AcDbEntity
8
0
100
AcDbCircle
10
0.0000
20
0.0000
30
0.0000
40
0.3000
0
CIRCLE
5
d9
330
d2
100
AcDbEntity
8
0
100
AcDbCircle
10
36.8621
20
0.0000
30
0.0000
40
0.3000
0
MTEXT
5
da
330
d2
100
AcDbEntity
8
0
100
AcDbMText
10
18.4310
20
0.5000
30
0.0000
40
0.2500
41
1.0000
1
36.86
7
STANDARD
50
0.0
71
5
72
5
0
ENDBLK
5
d4
330
d2
100
AcDbEntity
8
0
100
AcDbBlockEnd
0
BLOCK
5
dc
330
db
100
AcDbEntity
8
0
100
AcDbBlockBegin
2
*D16
70
1
10
0.0000
20
0.0000
30
0.0000
3
*D16
1

0
CIRCLE
5
e1
330
db
100
AcDbEntity
8
0
100
AcDbCircle
10
0.0000
20
0.0000
30
0.0000
40
0.3000
0
CIRCLE
5
e2
330
db
100
AcDbEntity
8
0
100
AcDbCircle
10
31.8655
20
0.0000
30
0.0000
40
0.3000
0
MTEXT
5
e3
330
db
100
AcDbEntity
8
0
100
AcDbMText
10
15.9328
20
0.5000
30
0.0000
40
0.2500
41
1.0000
1
31.87
7
STANDARD
50
0.0
71
5
72
5
0
ENDBLK
5
dd
330
db
100
AcDbEntity
8
0
100
AcDbBlockEnd
0
BLOCK
5
e5
330
e4
100
AcDbEntity
8
0
100
AcDbBlockBegin
2
*D17
70
1
10
0.0000
20
0.0000
30
0.0000
3
*D17
1

0
CIRCLE
5
ea
330
e4
100
AcDbEntity
8
0
100
AcDbCircle
10
0.0000
20
0.0000
30
0.0000
40
0.3000
0
CIRCLE
5
eb
330
e4
100
AcDbEntity
8
0
100
AcDbCircle
10
30.1033
20
0.0000
30
0.0000
40
0.3000
0
MTEXT
5
ec
330
e4
100
AcDbEntity
8
0
100
AcDbMText
10
15.0517
20
0.5000
30
0.0000
40
0.2500
41
1.0000
1
30.10
7
STANDARD
50
0.0
71
5
72
5
0
ENDBLK
5
e6
330
e4
100
AcDbEntity
8
0
100
AcDbBlockEnd
0
BLOCK
5
ee
330
ed
100
AcDbEntity
8
0
100
AcDbBlockBegin
2
*D18
70
1
10
0.0000
20
0.0000
30
0.0000
3
*D18
1

0
CIRCLE
5
f3
330
ed
100
AcDbEntity
8
0
100
AcDbCircle
10
0.0000
20
0.0000
30
0.0000
40
0.3000
0
CIRCLE
5
f4
330
ed
100
AcDbEntity
8
0
100
AcDbCircle
10
29.4508
20
0.0000
30
0.0000
40
0.3000
0
MTEXT
5
f5
330
ed
100
AcDbEntity
8
0
100
AcDbMText
10
14.7254
20
0.5000
30
0.0000
40
0.2500
41
1.0000
1
29.45
7
STANDARD
50
0.0
71
5
72
5
0
ENDBLK
5
ef
330
ed
100
AcDbEntity
8
0
100
AcDbBlockEnd
0
ENDSEC
0
SECTION
2
ENTITIES
0
CIRCLE
5
115
330
23
100
AcDbEntity
8
0
62
7
100
AcDbCircle
10
1522.3494
20
2431.3957
30
0.0000
40
0.1500
0
MTEXT
5
116
330
23
100
AcDbEntity
8
0
62
7
100
AcDbMText
10
1522.5744
20
2431.6207
30
0.0000
40
0.2500
41
1.0000
1
o1:0.000
7
STANDARD
71
1
72
5
0
CIRCLE
5
117
330
23
100
AcDbEntity
8
0
62
7
100
AcDbCircle
10
1532.4318
20
2372.7013
30
0.0000
40
0.1500
0
MTEXT
5
118
330
23
100
AcDbEntity
8
0
62
7
100
AcDbMText
10
1532.6568
20
2372.9263
30
0.0000
40
0.2500
41
1.0000
1
o2:0.000
7
STANDARD
71
1
72
5
0
CIRCLE
5
119
330
23
100
AcDbEntity
8
0
62
7
100
AcDbCircle
10
1613.6161
20
2372.4388
30
0.0000
40
0.1500
0
MTEXT
5
11a
330
23
100
AcDbEntity
8
0
62
7
100
AcDbMText
10
1613.8411
20
2372.6638
30
0.0000
40
0.2500
41
1.0000
1
o4:0.000
7
STANDARD
71
1
72
5
0
CIRCLE
5
11b
330
23
100
AcDbEntity
8
0
62
7
100
AcDbCircle
10
1601.8085
20
2441.1760
30
0.0000
40
0.1500
0
MTEXT
5
11c
330
23
100
AcDbEntity
8
0
62
7
100
AcDbMText
10
1602.0335
20
2441.4010
30
0.0000
40
0.2500
41
1.0000
1
o3:0.000
7
STANDARD
71
1
72
5
0
CIRCLE
5
11d
330
23
100
AcDbEntity
8
0
62
7
100
AcDbCircle
10
1516.5334
20
2435.7176
30
0.0000
40
0.1500
0
MTEXT
5
11e
330
23
100
AcDbEntity
8
0
62
7
100
AcDbMText
10
1516.7584
20
2435.9426
30
0.0000
40
0.2500
41
1.0000
1
r1:0.000
7
STANDARD
71
1
72
5
0
CIRCLE
5
11f
330
23
100
AcDbEntity
8
0
62
7
100
AcDbCircle
10
1528.2154
20
2367.7146
30
0.0000
40
0.1500
0
MTEXT
5
120
330
23
100
AcDbEntity
8
0
62
7
100
AcDbMText
10
1528.4404
20
2367.9396
30
0.0000
40
0.2500
41
1.0000
1
r2:0.000
7
STANDARD
71
1
72
5
0
CIRCLE
5
121
330
23
100
AcDbEntity
8
0
62
7
100
AcDbCircle
10
1619.5514
20
2367.4196
30
0.0000
40
0.1500
0
MTEXT
5
122
330
23
100
AcDbEntity
8
0
62
7
100
AcDbMText
10
1619.7764
20
2367.6446
30
0.0000
40
0.2500
41
1.0000
1
r4:0.000
7
STANDARD
71
1
72
5
0
CIRCLE
5
123
330
23
100
AcDbEntity
8
0
62
7
100
AcDbCircle
10
1605.9294
20
2446.7206
30
0.0000
40
0.1500
0
MTEXT
5
124
330
23
100
AcDbEntity
8
0
62
7
100
AcDbMText
10
1606.1544
20
2446.9456
30
0.0000
40
0.2500
41
1.0000
1
r3:0.000
7
STANDARD
71
1
72
5
0
LWPOLYLINE
5
125
330
23
100
AcDbEntity
8
0
62
1
100
AcDbPolyline
90
5
70
0
38
0.0000
10
1522.3494
20
2431.3957
10
1532.4318
20
2372.7013
10
1613.6161
20
2372.4388
10
1601.8085
20
2441.1760
10
1522.3494
20
2431.3957
0
LWPOLYLINE
5
126
330
23
100
AcDbEntity
8
0
62
3
100
AcDbPolyline
90
5
70
0
38
0.0000
10
1516.5334
20
2435.7176
10
1528.2154
20
2367.7146
10
1619.5514
20
2367.4196
10
1605.9294
20
2446.7206
10
1516.5334
20
2435.7176
0
CIRCLE
5
127
330
23
100
AcDbEntity
8
0
62
7
100
AcDbCircle
10
1530.7134
20
2370.3066
30
8.1200
40
0.1500
0
MTEXT
5
128
330
23
100
AcDbEntity
8
0
62
7
100
AcDbMText
10
1530.9384
20
2370.5316
30
8.1200
40
0.2500
41
1.0000
1
\U+03A31:8.120
7
STANDARD
71
1
72
5
0
CIRCLE
5
129
330
23
100
AcDbEntity
8
0
62
7
100
AcDbCircle
10
1613.2154
20
2369.9776
30
8.0600
40
0.1500
0
MTEXT
5
12a
330
23
100
AcDbEntity
8
0
62
7
100
AcDbMText
10
1613.4404
20
2370.2026
30
8.0600
40
0.2500
41
1.0000
1
\U+03A32:8.060
7
STANDARD
71
1
72
5
0
CIRCLE
5
12b
330
23
100
AcDbEntity
8
0
62
7
100
AcDbCircle
10
1602.6414
20
2443.1836
30
8.8800
40
0.1500
0
MTEXT
5
12c
330
23
100
AcDbEntity
8
0
62
7
100
AcDbMText
10
1602.8664
20
2443.4086
30
8.8800
40
0.2500
41
1.0000
1
\U+03A33:8.880
7
STANDARD
71
1
72
5
0
CIRCLE
5
12d
330
23
100
AcDbEntity
8
0
62
7
100
AcDbCircle
10
1566.3684
20
2439.3706
30
8.5800
40
0.1500
0
MTEXT
5
12e
330
23
100
AcDbEntity
8
0
62
7
100
AcDbMText
10
1566.5934
20
2439.5956
30
8.5800
40
0.2500
41
1.0000
1
\U+03A34:8.580
7
STANDARD
71
1
72
5
0
CIRCLE
5
130
330
23
100
AcDbEntity
8
0
62
7
100
AcDbCircle
10
1516.5334
20
2435.7176
30
0.0000
40
0.3000
0
CIRCLE
5
131
330
23
100
AcDbEntity
8
0
62
7
100
AcDbCircle
10
1547.9860
20
2439.5888
30
0.0000
40
0.3000
0
WIPEOUT
5
132
330
23
100
AcDbEntity
8
0
100
AcDbWipeout
90
0
10
1532.1130
20
2437.6352
30
0.0000
11
1.1910
21
0.1466
31
0.0000
12
-0.0550
22
0.4466
32
0.0000
13
1.0000
23
1.0000
340
0
70
7
280
1
281
50
282
50
283
0
360
0
71
2
91
5
14
-0.6000
24
0.2250
14
0.6000
24
0.2250
14
0.6000
24
-0.2250
14
-0.6000
24
-0.2250
14
-0.6000
24
0.2250
0
MTEXT
5
133
330
23
100
AcDbEntity
8
0
62
7
100
AcDbMText
10
1532.1130
20
2437.6352
30
0.0000
40
0.2500
41
1.0000
1
31.69
7
STANDARD
50
7.0
71
5
72
5
0
CIRCLE
5
135
330
23
100
AcDbEntity
8
0
62
7
100
AcDbCircle
10
1547.9860
20
2439.5888
30
0.0000
40
0.3000
0
CIRCLE
5
136
330
23
100
AcDbEntity
8
0
62
7
100
AcDbCircle
10
1574.4761
20
2442.8493
30
0.0000
40
0.3000
0
WIPEOUT
5
137
330
23
100
AcDbEntity
8
0
100
AcDbWipeout
90
0
10
1561.2314
20
2441.2191
30
0.0000
11
1.1910
21
0.1466
31
0.0000
12
-0.0550
22
0.4466
32
0.0000
13
1.0000
23
1.0000
340
0
70
7
280
1
281
50
282
50
283
0
360
0
71
2
91
5
14
-0.6000
24
0.2250
14
0.6000
24
0.2250
14
0.6000
24
-0.2250
14
-0.6000
24
-0.2250
14
-0.6000
24
0.2250
0
MTEXT
5
138
330
23
100
AcDbEntity
8
0
62
7
100
AcDbMText
10
1561.2314
20
2441.2191
30
0.0000
40
0.2500
41
1.0000
1
26.69
7
STANDARD
50
7.0
71
5
72
5
0
CIRCLE
5
13a
330
23
100
AcDbEntity
8
0
62
7
100
AcDbCircle
10
1574.4761
20
2442.8493
30
0.0000
40
0.3000
0
CIRCLE
5
13b
330
23
100
AcDbEntity
8
0
62
7
100
AcDbCircle
10
1605.9294
20
2446.7206
30
0.0000
40
0.3000
0
WIPEOUT
5
13c
330
23
100
AcDbEntity
8
0
100
AcDbWipeout
90
0
10
1590.9548
20
2444.8775
30
0.0000
11
1.1910
21
0.1466
31
0.0000
12
-0.0550
22
0.4466
32
0.0000
13
1.0000
23
1.0000
340
0
70
7
280
1
281
50
282
50
283
0
360
0
71
2
91
5
14
-0.6000
24
0.2250
14
0.6000
24
0.2250
14
0.6000
24
-0.2250
14
-0.6000
24
-0.2250
14
-0.6000
24
0.2250
0
MTEXT
5
13d
330
23
100
AcDbEntity
8
0
62
7
100
AcDbMText
10
1590.9548
20
2444.8775
30
0.0000
40
0.2500
41
1.0000
1
31.69
7
STANDARD
50
7.0
71
5
72
5
0
CIRCLE
5
13f
330
23
100
AcDbEntity
8
0
62
7
100
AcDbCircle
10
1516.5334
20
2435.7176
30
0.0000
40
0.3000
0
CIRCLE
5
140
330
23
100
AcDbEntity
8
0
62
7
100
AcDbCircle
10
1522.4218
20
2401.4397
30
0.0000
40
0.3000
0
WIPEOUT
5
141
330
23
100
AcDbEntity
8
0
100
AcDbWipeout
90
0
10
1519.5148
20
2418.3620
30
0.0000
11
0.2032
21
-1.1827
31
0.0000
12
0.4435
22
0.0762
32
0.0000
13
1.0000
23
1.0000
340
0
70
7
280
1
281
50
282
50
283
0
360
0
71
2
91
5
14
-0.6000
24
0.2250
14
0.6000
24
0.2250
14
0.6000
24
-0.2250
14
-0.6000
24
-0.2250
14
-0.6000
24
0.2250
0
MTEXT
5
142
330
23
100
AcDbEntity
8
0
62
7
100
AcDbMText
10
1519.5148
20
2418.3620
30
0.0000
40
0.2500
41
1.0000
1
34.78
7
STANDARD
50
-80.3
71
5
72
5
0
CIRCLE
5
144
330
23
100
AcDbEntity
8
0
62
7
100
AcDbCircle
10
1522.4218
20
2401.4397
30
0.0000
40
0.3000
0
CIRCLE
5
145
330
23
100
AcDbEntity
8
0
62
7
100
AcDbCircle
10
1528.2154
20
2367.7146
30
0.0000
40
0.3000
0
WIPEOUT
5
146
330
23
100
AcDbEntity
8
0
100
AcDbWipeout
90
0
10
1525.7885
20
2381.8421
30
0.0000
11
0.2032
21
-1.1827
31
0.0000
12
0.4435
22
0.0762
32
0.0000
13
1.0000
23
1.0000
340
0
70
7
280
1
281
50
282
50
283
0
360
0
71
2
91
5
14
-0.6000
24
0.2250
14
0.6000
24
0.2250
14
0.6000
24
-0.2250
14
-0.6000
24
-0.2250
14
-0.6000
24
0.2250
0
MTEXT
5
147
330
23
100
AcDbEntity
8
0
62
7
100
AcDbMText
10
1525.7885
20
2381.8421
30
0.0000
40
0.2500
41
1.0000
1
34.22
7
STANDARD
50
-80.3
71
5
72
5
0
CIRCLE
5
149
330
23
100
AcDbEntity
8
0
62
7
100
AcDbCircle
10
1605.9294
20
2446.7206
30
0.0000
40
0.3000
0
CIRCLE
5
14a
330
23
100
AcDbEntity
8
0
62
7
100
AcDbCircle
10
1612.8197
20
2406.6081
30
0.0000
40
0.3000
0
WIPEOUT
5
14b
330
23
100
AcDbEntity
8
0
100
AcDbWipeout
90
0
10
1609.7341
20
2424.5712
30
0.0000
11
0.2032
21
-1.1827
31
0.0000
12
0.4435
22
0.0762
32
0.0000
13
1.0000
23
1.0000
340
0
70
7
280
1
281
50
282
50
283
0
360
0
71
2
91
5
14
-0.6000
24
0.2250
14
0.6000
24
0.2250
14
0.6000
24
-0.2250
14
-0.6000
24
-0.2250
14
-0.6000
24
0.2250
0
MTEXT
5
14c
330
23
100
AcDbEntity
8
0
62
7
100
AcDbMText
10
1609.7341
20
2424.5712
30
0.0000
40
0.2500
41
1.0000
1
40.70
7
STANDARD
50
-80.3
71
5
72
5
0
CIRCLE
5
14e
330
23
100
AcDbEntity
8
0
62
7
100
AcDbCircle
10
1612.8197
20
2406.6081
30
0.0000
40
0.3000
0
CIRCLE
5
14f
330
23
100
AcDbEntity
8
0
62
7
100
AcDbCircle
10
1619.5514
20
2367.4196
30
0.0000
40
0.3000
0
WIPEOUT
5
150
330
23
100
AcDbEntity
8
0
100
AcDbWipeout
90
0
10
1616.1839
20
2387.0237
30
0.0000
11
0.2032
21
-1.1827
31
0.0000
12
0.4435
22
0.0762
32
0.0000
13
1.0000
23
1.0000
340
0
70
7
280
1
281
50
282
50
283
0
360
0
71
2
91
5
14
-0.6000
24
0.2250
14
0.6000
24
0.2250
14
0.6000
24
-0.2250
14
-0.6000
24
-0.2250
14
-0.6000
24
0.2250
0
MTEXT
5
151
330
23
100
AcDbEntity
8
0
62
7
100
AcDbMText
10
1616.1839
20
2387.0237
30
0.0000
40
0.2500
41
1.0000
1
39.76
7
STANDARD
50
-80.3
71
5
72
5
0
CIRCLE
5
153
330
23
100
AcDbEntity
8
0
62
7
100
AcDbCircle
10
1528.2154
20
2367.7146
30
0.0000
40
0.3000
0
CIRCLE
5
154
330
23
100
AcDbEntity
8
0
62
7
100
AcDbCircle
10
1573.3051
20
2367.5690
30
0.0000
40
0.3000
0
WIPEOUT
5
155
330
23
100
AcDbEntity
8
0
100
AcDbWipeout
90
0
10
1552.2586
20
2367.6369
30
0.0000
11
1.2000
21
-0.0039
31
0.0000
12
0.0015
22
0.4500
32
0.0000
13
1.0000
23
1.0000
340
0
70
7
280
1
281
50
282
50
283
0
360
0
71
2
91
5
14
-0.6000
24
0.2250
14
0.6000
24
0.2250
14
0.6000
24
-0.2250
14
-0.6000
24
-0.2250
14
-0.6000
24
0.2250
0
MTEXT
5
156
330
23
100
AcDbEntity
8
0
62
7
100
AcDbMText
10
1552.2586
20
2367.6369
30
0.0000
40
0.2500
41
1.0000
1
45.09
7
STANDARD
50
-0.2
71
5
72
5
0
CIRCLE
5
158
330
23
100
AcDbEntity
8
0
62
7
100
AcDbCircle
10
1573.3051
20
2367.5690
30
0.0000
40
0.3000
0
CIRCLE
5
159
330
23
100
AcDbEntity
8
0
62
7
100
AcDbCircle
10
1619.5514
20
2367.4196
30
0.0000
40
0.3000
0
WIPEOUT
5
15a
330
23
100
AcDbEntity
8
0
100
AcDbWipeout
90
0
10
1594.8057
20
2367.4995
30
0.0000
11
1.2000
21
-0.0039
31
0.0000
12
0.0015
22
0.4500
32
0.0000
13
1.0000
23
1.0000
340
0
70
7
280
1
281
50
282
50
283
0
360
0
71
2
91
5
14
-0.6000
24
0.2250
14
0.6000
24
0.2250
14
0.6000
24
-0.2250
14
-0.6000
24
-0.2250
14
-0.6000
24
0.2250
0
MTEXT
5
15b
330
23
100
AcDbEntity
8
0
62
7
100
AcDbMText
10
1594.8057
20
2367.4995
30
0.0000
40
0.2500
41
1.0000
1
46.25
7
STANDARD
50
-0.2
71
5
72
5
0
LINE
5
15c
330
23
100
AcDbEntity
8
0
62
7
100
AcDbLine
10
1522.4218
20
2401.4397
30
0.0000
11
1612.8197
21
2406.6081
31
0.0000
0
CIRCLE
5
15e
330
23
100
AcDbEntity
8
0
62
7
100
AcDbCircle
10
1522.4218
20
2401.4397
30
0.0000
40
0.3000
0
CIRCLE
5
15f
330
23
100
AcDbEntity
8
0
62
7
100
AcDbCircle
10
1571.2122
20
2404.2292
30
0.0000
40
0.3000
0
WIPEOUT
5
160
330
23
100
AcDbEntity
8
0
100
AcDbWipeout
90
0
10
1554.2199
20
2403.2577
30
0.0000
11
1.1980
21
0.0685
31
0.0000
12
-0.0257
22
0.4493
32
0.0000
13
1.0000
23
1.0000
340
0
70
7
280
1
281
50
282
50
283
0
360
0
71
2
91
5
14
-0.6000
24
0.2250
14
0.6000
24
0.2250
14
0.6000
24
-0.2250
14
-0.6000
24
-0.2250
14
-0.6000
24
0.2250
0
MTEXT
5
161
330
23
100
AcDbEntity
8
0
62
7
100
AcDbMText
10
1554.2199
20
2403.2577
30
0.0000
40
0.2500
41
1.0000
1
48.87
7
STANDARD
50
3.3
71
5
72
5
0
LINE
5
162
330
23
100
AcDbEntity
8
0
62
7
100
AcDbLine
10
1571.2122
20
2404.2292
30
0.0000
11
1573.3051
21
2367.5690
31
0.0000
0
CIRCLE
5
164
330
23
100
AcDbEntity
8
0
62
7
100
AcDbCircle
10
1571.2122
20
2404.2292
30
0.0000
40
0.3000
0
CIRCLE
5
165
330
23
100
AcDbEntity
8
0
62
7
100
AcDbCircle
10
1573.3051
20
2367.5690
30
0.0000
40
0.3000
0
WIPEOUT
5
166
330
23
100
AcDbEntity
8
0
100
AcDbWipeout
90
0
10
1572.2203
20
2386.5709
30
0.0000
11
0.0684
21
-1.1980
31
0.0000
12
0.4493
22
0.0256
32
0.0000
13
1.0000
23
1.0000
340
0
70
7
280
1
281
50
282
50
283
0
360
0
71
2
91
5
14
-0.6000
24
0.2250
14
0.6000
24
0.2250
14
0.6000
24
-0.2250
14
-0.6000
24
-0.2250
14
-0.6000
24
0.2250
0
MTEXT
5
167
330
23
100
AcDbEntity
8
0
62
7
100
AcDbMText
10
1572.2203
20
2386.5709
30
0.0000
40
0.2500
41
1.0000
1
36.72
7
STANDARD
50
-86.7
71
5
72
5
0
CIRCLE
5
169
330
23
100
AcDbEntity
8
0
62
7
100
AcDbCircle
10
1522.4218
20
2401.4397
30
0.0000
40
0.3000
0
CIRCLE
5
16a
330
23
100
AcDbEntity
8
0
62
7
100
AcDbCircle
10
1554.2199
20
2403.2577
30
0.0000
40
0.3000
0
WIPEOUT
5
16b
330
23
100
AcDbEntity
8
0
100
AcDbWipeout
90
0
10
1538.3209
20
2402.3487
30
0.0000
11
1.1980
21
0.0685
31
0.0000
12
-0.0257
22
0.4493
32
0.0000
13
1.0000
23
1.0000
340
0
70
7
280
1
281
50
282
50
283
0
360
0
71
2
91
5
14
-0.6000
24
0.2250
14
0.6000
24
0.2250
14
0.6000
24
-0.2250
14
-0.6000
24
-0.2250
14
-0.6000
24
0.2250
0
MTEXT
5
16c
330
23
100
AcDbEntity
8
0
62
7
100
AcDbMText
10
1538.3209
20
2402.3487
30
0.0000
40
0.2500
41
1.0000
1
31.85
7
STANDARD
50
3.3
71
5
72
5
0
LINE
5
16d
330
23
100
AcDbEntity
8
0
62
7
100
AcDbLine
10
1547.9860
20
2439.5888
30
0.0000
11
1554.2199
21
2403.2577
31
0.0000
0
CIRCLE
5
16f
330
23
100
AcDbEntity
8
0
62
7
100
AcDbCircle
10
1554.2199
20
2403.2577
30
0.0000
40
0.3000
0
CIRCLE
5
170
330
23
100
AcDbEntity
8
0
62
7
100
AcDbCircle
10
1581.0062
20
2404.7892
30
0.0000
40
0.3000
0
WIPEOUT
5
171
330
23
100
AcDbEntity
8
0
100
AcDbWipeout
90
0
10
1567.6130
20
2404.0235
30
0.0000
11
1.1980
21
0.0685
31
0.0000
12
-0.0257
22
0.4493
32
0.0000
13
1.0000
23
1.0000
340
0
70
7
280
1
281
50
282
50
283
0
360
0
71
2
91
5
14
-0.6000
24
0.2250
14
0.6000
24
0.2250
14
0.6000
24
-0.2250
14
-0.6000
24
-0.2250
14
-0.6000
24
0.2250
0
MTEXT
5
172
330
23
100
AcDbEntity
8
0
62
7
100
AcDbMText
10
1567.6130
20
2404.0235
30
0.0000
40
0.2500
41
1.0000
1
26.83
7
STANDARD
50
3.3
71
5
72
5
0
LINE
5
173
330
23
100
AcDbEntity
8
0
62
7
100
AcDbLine
10
1574.4761
20
2442.8493
30
0.0000
11
1581.0062
21
2404.7892
31
0.0000
0
CIRCLE
5
175
330
23
100
AcDbEntity
8
0
62
7
100
AcDbCircle
10
1574.4761
20
2442.8493
30
0.0000
40
0.3000
0
CIRCLE
5
176
330
23
100
AcDbEntity
8
0
62
7
100
AcDbCircle
10
1581.0062
20
2404.7892
30
0.0000
40
0.3000
0
WIPEOUT
5
177
330
23
100
AcDbEntity
8
0
100
AcDbWipeout
90
0
10
1577.7411
20
2423.8192
30
0.0000
11
0.2029
21
-1.1827
31
0.0000
12
0.4435
22
0.0761
32
0.0000
13
1.0000
23
1.0000
340
0
70
7
280
1
281
50
282
50
283
0
360
0
71
2
91
5
14
-0.6000
24
0.2250
14
0.6000
24
0.2250
14
0.6000
24
-0.2250
14
-0.6000
24
-0.2250
14
-0.6000
24
0.2250
0
MTEXT
5
178
330
23
100
AcDbEntity
8
0
62
7
100
AcDbMText
10
1577.7411
20
2423.8192
30
0.0000
40
0.2500
41
1.0000
1
38.62
7
STANDARD
50
-80.3
71
5
72
5
0
CIRCLE
5
17a
330
23
100
AcDbEntity
8
0
62
7
100
AcDbCircle
10
1547.9860
20
2439.5888
30
0.0000
40
0.3000
0
CIRCLE
5
17b
330
23
100
AcDbEntity
8
0
62
7
100
AcDbCircle
10
1554.2199
20
2403.2577
30
0.0000
40
0.3000
0
WIPEOUT
5
17c
330
23
100
AcDbEntity
8
0
100
AcDbWipeout
90
0
10
1551.1030
20
2421.4233
30
0.0000
11
0.2029
21
-1.1827
31
0.0000
12
0.4435
22
0.0761
32
0.0000
13
1.0000
23
1.0000
340
0
70
7
280
1
281
50
282
50
283
0
360
0
71
2
91
5
14
-0.6000
24
0.2250
14
0.6000
24
0.2250
14
0.6000
24
-0.2250
14
-0.6000
24
-0.2250
14
-0.6000
24
0.2250
0
MTEXT
5
17d
330
23
100
AcDbEntity
8
0
62
7
100
AcDbMText
10
1551.1030
20
2421.4233
30
0.0000
40
0.2500
41
1.0000
1
36.86
7
STANDARD
50
-80.3
71
5
72
5
0
CIRCLE
5
17f
330
23
100
AcDbEntity
8
0
62
7
100
AcDbCircle
10
1581.0062
20
2404.7892
30
0.0000
40
0.3000
0
CIRCLE
5
180
330
23
100
AcDbEntity
8
0
62
7
100
AcDbCircle
10
1612.8197
20
2406.6081
30
0.0000
40
0.3000
0
WIPEOUT
5
181
330
23
100
AcDbEntity
8
0
100
AcDbWipeout
90
0
10
1597.0757
20
2405.7080
30
0.0000
11
1.1980
21
0.0685
31
0.0000
12
-0.0257
22
0.4493
32
0.0000
13
1.0000
23
1.0000
340
0
70
7
280
1
281
50
282
50
283
0
360
0
71
2
91
5
14
-0.6000
24
0.2250
14
0.6000
24
0.2250
14
0.6000
24
-0.2250
14
-0.6000
24
-0.2250
14
-0.6000
24
0.2250
0
MTEXT
5
182
330
23
100
AcDbEntity
8
0
62
7
100
AcDbMText
10
1597.0757
20
2405.7080
30
0.0000
40
0.2500
41
1.0000
1
31.87
7
STANDARD
50
3.3
71
5
72
5
0
CIRCLE
5
184
330
23
100
AcDbEntity
8
0
62
7
100
AcDbCircle
10
1522.3494
20
2431.3957
30
0.0000
40
0.3000
0
CIRCLE
5
185
330
23
100
AcDbEntity
8
0
62
7
100
AcDbCircle
10
1527.4458
20
2401.7269
30
0.0000
40
0.3000
0
WIPEOUT
5
186
330
23
100
AcDbEntity
8
0
100
AcDbWipeout
90
0
10
1523.8015
20
2422.9425
30
0.0000
11
0.2032
21
-1.1827
31
0.0000
12
0.4435
22
0.0762
32
0.0000
13
1.0000
23
1.0000
340
0
70
7
280
1
281
50
282
50
283
0
360
0
71
2
91
5
14
-0.6000
24
0.2250
14
0.6000
24
0.2250
14
0.6000
24
-0.2250
14
-0.6000
24
-0.2250
14
-0.6000
24
0.2250
0
MTEXT
5
187
330
23
100
AcDbEntity
8
0
62
7
100
AcDbMText
10
1523.8015
20
2422.9425
30
0.0000
40
0.2500
41
1.0000
1
30.10
7
STANDARD
50
-80.3
71
5
72
5
0
CIRCLE
5
189
330
23
100
AcDbEntity
8
0
62
7
100
AcDbCircle
10
1527.4458
20
2401.7269
30
0.0000
40
0.3000
0
CIRCLE
5
18a
330
23
100
AcDbEntity
8
0
62
7
100
AcDbCircle
10
1532.4318
20
2372.7013
30
0.0000
40
0.3000
0
WIPEOUT
5
18b
330
23
100
AcDbEntity
8
0
100
AcDbWipeout
90
0
10
1529.4756
20
2389.9106
30
0.0000
11
0.2032
21
-1.1827
31
0.0000
12
0.4435
22
0.0762
32
0.0000
13
1.0000
23
1.0000
340
0
70
7
280
1
281
50
282
50
283
0
360
0
71
2
91
5
14
-0.6000
24
0.2250
14
0.6000
24
0.2250
14
0.6000
24
-0.2250
14
-0.6000
24
-0.2250
14
-0.6000
24
0.2250
0
MTEXT
5
18c
330
23
100
AcDbEntity
8
0
62
7
100
AcDbMText
10
1529.4756
20
2389.9106
30
0.0000
40
0.2500
41
1.0000
1
29.45
7
STANDARD
50
-80.3
71
5
72
5
0
CIRCLE
5
18e
330
23
100
AcDbEntity
8
0
62
7
100
AcDbCircle
10
1535.8913
20
2387.6397
30
0.0000
40
0.1500
0
MTEXT
5
18f
330
23
100
AcDbEntity
8
0
62
7
100
AcDbMText
10
1536.1163
20
2387.8647
30
0.0000
40
0.2500
41
1.0000
1
12:0.000
7
STANDARD
71
1
72
5
0
CIRCLE
5
190
330
23
100
AcDbEntity
8
0
62
7
100
AcDbCircle
10
1535.5665
20
2392.0926
30
0.0000
40
0.1500
0
MTEXT
5
191
330
23
100
AcDbEntity
8
0
62
7
100
AcDbMText
10
1535.7915
20
2392.3176
30
0.0000
40
0.2500
41
1.0000
1
13:0.000
7
STANDARD
71
1
72
5
0
CIRCLE
5
192
330
23
100
AcDbEntity
8
0
62
7
100
AcDbCircle
10
1542.2647
20
2392.1051
30
0.0000
40
0.1500
0
MTEXT
5
193
330
23
100
AcDbEntity
8
0
62
7
100
AcDbMText
10
1542.4897
20
2392.3301
30
0.0000
40
0.2500
41
1.0000
1
14:0.000
7
STANDARD
71
1
72
5
0
CIRCLE
5
194
330
23
100
AcDbEntity
8
0
62
7
100
AcDbCircle
10
1542.4124
20
2387.6376
30
0.0000
40
0.1500
0
MTEXT
5
195
330
23
100
AcDbEntity
8
0
62
7
100
AcDbMText
10
1542.6374
20
2387.8626
30
0.0000
40
0.2500
41
1.0000
1
15:0.000
7
STANDARD
71
1
72
5
0
LWPOLYLINE
5
196
330
23
100
AcDbEntity
8
0
62
7
100
AcDbPolyline
90
5
70
0
38
0.0000
10
1535.8913
20
2387.6397
10
1535.5665
20
2392.0926
10
1542.2647
20
2392.1051
10
1542.4124
20
2387.6376
10
1535.8913
20
2387.6397
0
TEXT
5
197
330
23
100
AcDbEntity
8
0
62
7
100
AcDbText
10
1539.0735
20
2389.8652
30
0.0000
40
1.0000
1
1/\U+039B 
7
STANDARD
50
0.0
100
AcDbText
0
CIRCLE
5
198
330
23
100
AcDbEntity
8
0
62
7
100
AcDbCircle
10
1539.9947
20
2429.5565
30
0.0000
40
1.0000
0
TEXT
5
199
330
23
100
AcDbEntity
8
0
62
7
100
AcDbText
10
1540.0571
20
2429.5254
30
0.0000
40
1.0000
1
1
7
STANDARD
50
0.0
100
AcDbText
0
CIRCLE
5
19a
330
23
100
AcDbEntity
8
0
62
7
100
AcDbCircle
10
1563.5677
20
2432.4580
30
0.0000
40
1.0000
0
TEXT
5
19b
330
23
100
AcDbEntity
8
0
62
7
100
AcDbText
10
1563.6301
20
2432.4268
30
0.0000
40
1.0000
1
2
7
STANDARD
50
0.0
100
AcDbText
0
CIRCLE
5
19c
330
23
100
AcDbEntity
8
0
62
7
100
AcDbCircle
10
1591.3615
20
2435.8791
30
0.0000
40
1.0000
0
TEXT
5
19d
330
23
100
AcDbEntity
8
0
62
7
100
AcDbText
10
1591.4239
20
2435.8479
30
0.0000
40
1.0000
1
3
7
STANDARD
50
0.0
100
AcDbText
0
CIRCLE
5
19e
330
23
100
AcDbEntity
8
0
62
7
100
AcDbCircle
10
1589.2332
20
2401.5424
30
0.0000
40
1.0000
0
TEXT
5
19f
330
23
100
AcDbEntity
8
0
62
7
100
AcDbText
10
1589.2956
20
2401.5112
30
0.0000
40
1.0000
1
4
7
STANDARD
50
0.0
100
AcDbText
0
CIRCLE
5
1a0
330
23
100
AcDbEntity
8
0
62
7
100
AcDbCircle
10
1547.9954
20
2399.1847
30
0.0000
40
1.0000
0
TEXT
5
1a1
330
23
100
AcDbEntity
8
0
62
7
100
AcDbText
10
1548.0578
20
2399.1535
30
0.0000
40
1.0000
1
5
7
STANDARD
50
0.0
100
AcDbText
0
CIRCLE
5
1a2
330
23
100
AcDbEntity
8
0
62
7
100
AcDbCircle
10
1561.5757
20
2396.4691
30
0.0000
40
2.0000
0
LINE
5
1a3
330
23
100
AcDbEntity
8
0
62
7
100
AcDbLine
10
1559.5757
20
2396.4691
30
0.0000
11
1563.5757
21
2396.4691
31
0.0000
0
TEXT
5
1a4
330
23
100
AcDbEntity
8
0
62
7
100
AcDbText
10
1561.5796
20
2397.4338
30
0.0000
40
1.0000
1
\U+039F.\U+03A4.
7
STANDARD
50
0.0
100
AcDbText
0
TEXT
5
1a5
330
23
100
AcDbEntity
8
0
62
7
100
AcDbText
10
1561.5255
20
2395.4356
30
0.0000
40
1.0000
1
60
7
STANDARD
50
0.0
100
AcDbText
0
INSERT
5
53
330
23
100
AcDbEntity
8
0
100
AcDbBlockReference
2
TITLE_BOARD_1
10
1647.3530
20
2393.7552
30
0.0000
41
1.0000
42
1.0000
43
1.0000
50
0.0000
0
LWPOLYLINE
5
1a6
330
23
100
AcDbEntity
8
0
62
8
100
AcDbPolyline
90
4
70
1
10
1516.5334
20
2367.4196
10
1619.5514
20
2367.4196
10
1619.5514
20
2446.7206
10
1516.5334
20
2446.7206
0
LINE
5
1a7
330
23
100
AcDbEntity
8
0
100
AcDbLine
10
1520.0000
20
2367.4196
30
0.0000
11
1520.0000
21
2368.0196
31
0.0000
0
MTEXT
5
1a8
330
23
100
AcDbEntity
8
0
100
AcDbMText
10
1520.0000
20
2368.0196
30
0.0000
40
0.2500
41
1.0000
1
1520
7
STANDARD
50
90.0
71
4
72
5
0
LINE
5
1a9
330
23
100
AcDbEntity
8
0
100
AcDbLine
10
1520.0000
20
2446.7206
30
0.0000
11
1520.0000
21
2446.1206
31
0.0000
0
LINE
5
1aa
330
23
100
AcDbEntity
8
0
100
AcDbLine
10
1540.0000
20
2367.4196
30
0.0000
11
1540.0000
21
2368.0196
31
0.0000
0
MTEXT
5
1ab
330
23
100
AcDbEntity
8
0
100
AcDbMText
10
1540.0000
20
2368.0196
30
0.0000
40
0.2500
41
1.0000
1
1540
7
STANDARD
50
90.0
71
4
72
5
0
LINE
5
1ac
330
23
100
AcDbEntity
8
0
100
AcDbLine
10
1540.0000
20
2446.7206
30
0.0000
11
1540.0000
21
2446.1206
31
0.0000
0
LINE
5
1ad
330
23
100
AcDbEntity
8
0
100
AcDbLine
10
1560.0000
20
2367.4196
30
0.0000
11
1560.0000
21
2368.0196
31
0.0000
0
MTEXT
5
1ae
330
23
100
AcDbEntity
8
0
100
AcDbMText
10
1560.0000
20
2368.0196
30
0.0000
40
0.2500
41
1.0000
1
1560
7
STANDARD
50
90.0
71
4
72
5
0
LINE
5
1af
330
23
100
AcDbEntity
8
0
100
AcDbLine
10
1560.0000
20
2446.7206
30
0.0000
11
1560.0000
21
2446.1206
31
0.0000
0
LINE
5
1b0
330
23
100
AcDbEntity
8
0
100
AcDbLine
10
1580.0000
20
2367.4196
30
0.0000
11
1580.0000
21
2368.0196
31
0.0000
0
MTEXT
5
1b1
330
23
100
AcDbEntity
8
0
100
AcDbMText
10
1580.0000
20
2368.0196
30
0.0000
40
0.2500
41
1.0000
1
1580
7
STANDARD
50
90.0
71
4
72
5
0
LINE
5
1b2
330
23
100
AcDbEntity
8
0
100
AcDbLine
10
1580.0000
20
2446.7206
30
0.0000
11
1580.0000
21
2446.1206
31
0.0000
0
LINE
5
1b3
330
23
100
AcDbEntity
8
0
100
AcDbLine
10
1600.0000
20
2367.4196
30
0.0000
11
1600.0000
21
2368.0196
31
0.0000
0
MTEXT
5
1b4
330
23
100
AcDbEntity
8
0
100
AcDbMText
10
1600.0000
20
2368.0196
30
0.0000
40
0.2500
41
1.0000
1
1600
7
STANDARD
50
90.0
71
4
72
5
0
LINE
5
1b5
330
23
100
AcDbEntity
8
0
100
AcDbLine
10
1600.0000
20
2446.7206
30
0.0000
11
1600.0000
21
2446.1206
31
0.0000
0
LINE
5
1b6
330
23
100
AcDbEntity
8
0
100
AcDbLine
10
1516.5334
20
2380.0000
30
0.0000
11
1517.1334
21
2380.0000
31
0.0000
0
MTEXT
5
1b7
330
23
100
AcDbEntity
8
0
100
AcDbMText
10
1517.1334
20
2380.0000
30
0.0000
40
0.2500
41
1.0000
1
2380
7
STANDARD
50
0.0
71
4
72
5
0
LINE
5
1b8
330
23
100
AcDbEntity
8
0
100
AcDbLine
10
1619.5514
20
2380.0000
30
0.0000
11
1618.9514
21
2380.0000
31
0.0000
0
LINE
5
1b9
330
23
100
AcDbEntity
8
0
100
AcDbLine
10
1516.5334
20
2400.0000
30
0.0000
11
1517.1334
21
2400.0000
31
0.0000
0
MTEXT
5
1ba
330
23
100
AcDbEntity
8
0
100
AcDbMText
10
1517.1334
20
2400.0000
30
0.0000
40
0.2500
41
1.0000
1
2400
7
STANDARD
50
0.0
71
4
72
5
0
LINE
5
1bb
330
23
100
AcDbEntity
8
0
100
AcDbLine
10
1619.5514
20
2400.0000
30
0.0000
11
1618.9514
21
2400.0000
31
0.0000
0
LINE
5
1bc
330
23
100
AcDbEntity
8
0
100
AcDbLine
10
1516.5334
20
2420.0000
30
0.0000
11
1517.1334
21
2420.0000
31
0.0000
0
MTEXT
5
1bd
330
23
100
AcDbEntity
8
0
100
AcDbMText
10
1517.1334
20
2420.0000
30
0.0000
40
0.2500
41
1.0000
1
2420
7
STANDARD
50
0.0
71
4
72
5
0
LINE
5
1be
330
23
100
AcDbEntity
8
0
100
AcDbLine
10
1619.5514
20
2420.0000
30
0.0000
11
1618.9514
21
2420.0000
31
0.0000
0
LINE
5
1bf
330
23
100
AcDbEntity
8
0
100
AcDbLine
10
1516.5334
20
2440.0000
30
0.0000
11
1517.1334
21
2440.0000
31
0.0000
0
MTEXT
5
1c0
330
23
100
AcDbEntity
8
0
100
AcDbMText
10
1517.1334
20
2440.0000
30
0.0000
40
0.2500
41
1.0000
1
2440
7
STANDARD
50
0.0
71
4
72
5
0
LINE
5
1c1
330
23
100
AcDbEntity
8
0
100
AcDbLine
10
1619.5514
20
2440.0000
30
0.0000
11
1618.9514
21
2440.0000
31
0.0000
0
LINE
5
1c2
330
23
100
AcDbEntity
8
0
100
AcDbLine
10
1519.7000
20
2380.0000
30
0.0000
11
1520.3000
21
2380.0000
31
0.0000
0
LINE
5
1c3
330
23
100
AcDbEntity
8
0
100
AcDbLine
10
1520.0000
20
2379.7000
30
0.0000
11
1520.0000
21
2380.3000
31
0.0000
0
LINE
5
1c4
330
23
100
AcDbEntity
8
0
100
AcDbLine
10
1519.7000
20
2400.0000
30
0.0000
11
1520.3000
21
2400.0000
31
0.0000
0
LINE
5
1c5
330
23
100
AcDbEntity
8
0
100
AcDbLine
10
1520.0000
20
2399.7000
30
0.0000
11
1520.0000
21
2400.3000
31
0.0000
0
LINE
5
1c6
330
23
100
AcDbEntity
8
0
100
AcDbLine
10
1519.7000
20
2420.0000
30
0.0000
11
1520.3000
21
2420.0000
31
0.0000
0
LINE
5
1c7
330
23
100
AcDbEntity
8
0
100
AcDbLine
10
1520.0000
20
2419.7000
30
0.0000
11
1520.0000
21
2420.3000
31
0.0000
0
LINE
5
1c8
330
23
100
AcDbEntity
8
0
100
AcDbLine
10
1519.7000
20
2440.0000
30
0.0000
11
1520.3000
21
2440.0000
31
0.0000
0
LINE
5
1c9
330
23
100
AcDbEntity
8
0
100
AcDbLine
10
1520.0000
20
2439.7000
30
0.0000
11
1520.0000
21
2440.3000
31
0.0000
0
LINE
5
1ca
330
23
100
AcDbEntity
8
0
100
AcDbLine
10
1539.7000
20
2380.0000
30
0.0000
11
1540.3000
21
2380.0000
31
0.0000
0
LINE
5
1cb
330
23
100
AcDbEntity
8
0
100
AcDbLine
10
1540.0000
20
2379.7000
30
0.0000
11
1540.0000
21
2380.3000
31
0.0000
0
LINE
5
1cc
330
23
100
AcDbEntity
8
0
100
AcDbLine
10
1539.7000
20
2400.0000
30
0.0000
11
1540.3000
21
2400.0000
31
0.0000
0
LINE
5
1cd
330
23
100
AcDbEntity
8
0
100
AcDbLine
10
1540.0000
20
2399.7000
30
0.0000
11
1540.0000
21
2400.3000
31
0.0000
0
LINE
5
1ce
330
23
100
AcDbEntity
8
0
100
AcDbLine
10
1539.7000
20
2420.0000
30
0.0000
11
1540.3000
21
2420.0000
31
0.0000
0
LINE
5
1cf
330
23
100
AcDbEntity
8
0
100
AcDbLine
10
1540.0000
20
2419.7000
30
0.0000
11
1540.0000
21
2420.3000
31
0.0000
0
LINE
5
1d0
330
23
100
AcDbEntity
8
0
100
AcDbLine
10
1539.7000
20
2440.0000
30
0.0000
11
1540.3000
21
2440.0000
31
0.0000
0
LINE
5
1d1
330
23
100
AcDbEntity
8
0
100
AcDbLine
10
1540.0000
20
2439.7000
30
0.0000
11
1540.0000
21
2440.3000
31
0.0000
0
LINE
5
1d2
330
23
100
AcDbEntity
8
0
100
AcDbLine
10
1559.7000
20
2380.0000
30
0.0000
11
1560.3000
21
2380.0000
31
0.0000
0
LINE
5
1d3
330
23
100
AcDbEntity
8
0
100
AcDbLine
10
1560.0000
20
2379.7000
30
0.0000
11
1560.0000
21
2380.3000
31
0.0000
0
LINE
5
1d4
330
23
100
AcDbEntity
8
0
100
AcDbLine
10
1559.7000
20
2400.0000
30
0.0000
11
1560.3000
21
2400.0000
31
0.0000
0
LINE
5
1d5
330
23
100
AcDbEntity
8
0
100
AcDbLine
10
1560.0000
20
2399.7000
30
0.0000
11
1560.0000
21
2400.3000
31
0.0000
0
LINE
5
1d6
330
23
100
AcDbEntity
8
0
100
AcDbLine
10
1559.7000
20
2420.0000
30
0.0000
11
1560.3000
21
2420.0000
31
0.0000
0
LINE
5
1d7
330
23
100
AcDbEntity
8
0
100
AcDbLine
10
1560.0000
20
2419.7000
30
0.0000
11
1560.0000
21
2420.3000
31
0.0000
0
LINE
5
1d8
330
23
100
AcDbEntity
8
0
100
AcDbLine
10
1559.7000
20
2440.0000
30
0.0000
11
1560.3000
21
2440.0000
31
0.0000
0
LINE
5
1d9
330
23
100
AcDbEntity
8
0
100
AcDbLine
10
1560.0000
20
2439.7000
30
0.0000
11
1560.0000
21
2440.3000
31
0.0000
0
LINE
5
1da
330
23
100
AcDbEntity
8
0
100
AcDbLine
10
1579.7000
20
2380.0000
30
0.0000
11
1580.3000
21
2380.0000
31
0.0000
0
LINE
5
1db
330
23
100
AcDbEntity
8
0
100
AcDbLine
10
1580.0000
20
2379.7000
30
0.0000
11
1580.0000
21
2380.3000
31
0.0000
0
LINE
5
1dc
330
23
100
AcDbEntity
8
0
100
AcDbLine
10
1579.7000
20
2400.0000
30
0.0000
11
1580.3000
21
2400.0000
31
0.0000
0
LINE
5
1dd
330
23
100
AcDbEntity
8
0
100
AcDbLine
10
1580.0000
20
2399.7000
30
0.0000
11
1580.0000
21
2400.3000
31
0.0000
0
LINE
5
1de
330
23
100
AcDbEntity
8
0
100
AcDbLine
10
1579.7000
20
2420.0000
30
0.0000
11
1580.3000
21
2420.0000
31
0.0000
0
LINE
5
1df
330
23
100
AcDbEntity
8
0
100
AcDbLine
10
1580.0000
20
2419.7000
30
0.0000
11
1580.0000
21
2420.3000
31
0.0000
0
LINE
5
1e0
330
23
100
AcDbEntity
8
0
100
AcDbLine
10
1579.7000
20
2440.0000
30
0.0000
11
1580.3000
21
2440.0000
31
0.0000
0
LINE
5
1e1
330
23
100
AcDbEntity
8
0
100
AcDbLine
10
1580.0000
20
2439.7000
30
0.0000
11
1580.0000
21
2440.3000
31
0.0000
0
LINE
5
1e2
330
23
100
AcDbEntity
8
0
100
AcDbLine
10
1599.7000
20
2380.0000
30
0.0000
11
1600.3000
21
2380.0000
31
0.0000
0
LINE
5
1e3
330
23
100
AcDbEntity
8
0
100
AcDbLine
10
1600.0000
20
2379.7000
30
0.0000
11
1600.0000
21
2380.3000
31
0.0000
0
LINE
5
1e4
330
23
100
AcDbEntity
8
0
100
AcDbLine
10
1599.7000
20
2400.0000
30
0.0000
11
1600.3000
21
2400.0000
31
0.0000
0
LINE
5
1e5
330
23
100
AcDbEntity
8
0
100
AcDbLine
10
1600.0000
20
2399.7000
30
0.0000
11
1600.0000
21
2400.3000
31
0.0000
0
LINE
5
1e6
330
23
100
AcDbEntity
8
0
100
AcDbLine
10
1599.7000
20
2420.0000
30
0.0000
11
1600.3000
21
2420.0000
31
0.0000
0
LINE
5
1e7
330
23
100
AcDbEntity
8
0
100
AcDbLine
10
1600.0000
20
2419.7000
30
0.0000
11
1600.0000
21
2420.3000
31
0.0000
0
LINE
5
1e8
330
23
100
AcDbEntity
8
0
100
AcDbLine
10
1599.7000
20
2440.0000
30
0.0000
11
1600.3000
21
2440.0000
31
0.0000
0
LINE
5
1e9
330
23
100
AcDbEntity
8
0
100
AcDbLine
10
1600.0000
20
2439.7000
30
0.0000
11
1600.0000
21
2440.3000
31
0.0000
0
LWPOLYLINE
5
1ea
330
23
100
AcDbEntity
8
0
62
8
100
AcDbPolyline
90
4
70
1
10
1547.0424
20
2392.2201
10
1589.0424
20
2392.2201
10
1589.0424
20
2421.9201
10
1547.0424
20
2421.9201
0
MTEXT
5
1eb
330
23
100
AcDbEntity
8
0
62
8
100
AcDbMText
10
1568.0424
20
2420.8806
30
0.0000
40
0.5000
41
11.2750
1
A3 Landscape 420 mm x 297 mm | 42.00 m x 29.70 m
7
STANDARD
50
0.0
71
5
72
5
0
INSERT
5
1ec
330
23
100
AcDbEntity
8
0
100
AcDbBlockReference
2
NORTH_ARROW
10
1549.2424
20
2419.7201
30
0.0000
41
1.0000
42
1.0000
43
1.0000
50
0.0
0
ENDSEC
0
SECTION
2
OBJECTS
0
DICTIONARY
5
C
100
AcDbDictionary
281
1
3
ACAD_GROUP
350
F
3
ACAD_LAYOUT
350
10
3
ACAD_PLOTSTYLENAME
350
D
0
DICTIONARY
5
F
102
{ACAD_REACTORS
330
C
102
}
100
AcDbDictionary
281
1
0
DICTIONARY
5
10
102
{ACAD_REACTORS
330
C
102
}
100
AcDbDictionary
281
1
3
Model
350
11
3
Layout1
350
12
0
LAYOUT
5
11
102
{ACAD_REACTORS
330
10
102
}
100
AcDbPlotSettings
1

2
none_device
4

6

40
0.0
41
0.0
42
0.0
43
0.0
44
0.0
45
0.0
46
0.0
47
0.0
48
0.0
49
0.0
140
0.0
141
0.0
142
1.0
143
1.0
70
1712
72
0
73
0
74
5
75
16
76
0
77
2
78
300
147
1.0
148
0.0
149
0.0
100
AcDbLayout
1
Model
70
1
71
0
10
0.0
20
0.0
11
12.0
21
9.0
12
0.0
22
0.0
32
0.0
14
0.0
24
0.0
34
0.0
15
0.0
25
0.0
35
0.0
146
0.0
13
0.0
23
0.0
33
0.0
16
1.0
26
0.0
36
0.0
17
0.0
27
1.0
37
0.0
76
0
330
23
0
LAYOUT
5
12
102
{ACAD_REACTORS
330
10
102
}
100
AcDbPlotSettings
1

2
none_device
4
ISO_A3_(420.00_x_297.00_MM)
6

40
5.7
41
5.7
42
5.7
43
5.7
44
420.0
45
297.0
46
0.0
47
0.0
48
0.0
49
0.0
140
0.0
141
0.0
142
1.0
143
1.0
70
688
72
0
73
0
74
5
75
16
76
0
77
2
78
300
147
1.0
148
0.0
149
0.0
100
AcDbLayout
1
Layout1
70
1
71
1
10
0.0
20
0.0
11
420.0
21
297.0
12
0.0
22
0.0
32
0.0
14
0.0
24
0.0
34
0.0
15
0.0
25
0.0
35
0.0
146
0.0
13
0.0
23
0.0
33
0.0
16
1.0
26
0.0
36
0.0
17
0.0
27
1.0
37
0.0
76
0
330
24
0
DICTIONARY
5
D
102
{ACAD_REACTORS
330
C
102
}
100
AcDbDictionary
281
1
3
Normal
350
E
0
ACDBPLACEHOLDER
5
E
102
{ACAD_REACTORS
330
D
102
}
0
WIPEOUTVARIABLES
5
1ed
102
{ACAD_REACTORS
330
C
102
}
330
C
100
AcDbWipeoutVariables
70
0
0
ENDSEC
0
EOF